<svg width="50" height="50" viewBox="0 0 50 50" fill="none" xmlns="http://www.w3.org/2000/svg">
<path d="M36.7477 28.6258C35.0072 31.0127 33.1577 33.5494 32.1138 36.4902H17.891C16.8419 33.5144 14.9559 30.9404 13.1844 28.5226L13.1541 28.4812L13.1534 28.4803C12.6429 27.7852 12.1412 27.102 11.66 26.4109L11.6589 26.4094C9.83387 23.799 8.76434 20.6191 8.76434 17.1875C8.76434 8.25023 16.0309 1 25 1C33.9688 1 41.2357 8.24986 41.2357 17.1973C41.2357 20.628 40.1667 23.7989 38.3402 26.4206L38.3401 26.4207C37.8588 27.1118 37.3571 27.795 36.8466 28.4901L36.8445 28.493C36.8123 28.5372 36.78 28.5814 36.7477 28.6258ZM31.8344 42.1875C31.8344 45.949 28.7789 49 25 49C21.2212 49 18.1656 45.949 18.1656 42.1875V41.625H31.8344V42.1875ZM15.5987 19.75C17.0102 19.75 18.1656 18.6018 18.1656 17.1875C18.1656 13.426 21.2212 10.375 25 10.375C26.4114 10.375 27.5669 9.2268 27.5669 7.8125C27.5669 6.3982 26.4114 5.25 25 5.25C18.3885 5.25 13.0319 10.5877 13.0319 17.1875C13.0319 18.6018 14.1873 19.75 15.5987 19.75Z" stroke="white" stroke-width="2"/>
</svg>
