<svg width="210" height="383" viewBox="0 0 210 383" fill="none" xmlns="http://www.w3.org/2000/svg">
<g filter="url(#filter0_f_207_690)">
<path d="M-50.1779 85.0248C-18.0377 46.5039 46.743 65.1319 53.121 67.5033C53.121 67.5033 111.64 39.3066 74.2045 97.2054C36.7687 155.104 149.72 137.358 149.72 137.358L83.0228 226.197C83.0228 226.197 44.8704 124.5 -28.4514 172.708C-56.544 191.179 -69.0302 217.528 -73.7451 243.008C-50.244 254.799 -14.8805 264.317 36.4436 270.146C288.88 298.815 -68.7826 322.796 -68.7826 322.796C-68.7826 322.796 -81.3361 284.03 -73.7451 243.008C-165.834 196.805 -75.7835 115.714 -50.1779 85.0248Z" fill="#9747FF"/>
</g>
<defs>
<filter id="filter0_f_207_690" x="-174.281" y="0.638672" width="384.001" height="382.158" filterUnits="userSpaceOnUse" color-interpolation-filters="sRGB">
<feFlood flood-opacity="0" result="BackgroundImageFix"/>
<feBlend mode="normal" in="SourceGraphic" in2="BackgroundImageFix" result="shape"/>
<feGaussianBlur stdDeviation="30" result="effect1_foregroundBlur_207_690"/>
</filter>
</defs>
</svg>
