<svg width="173" height="394" viewBox="0 0 173 394" fill="none" xmlns="http://www.w3.org/2000/svg">
<g filter="url(#filter0_f_207_691)">
<path d="M66.6438 270.568C38.8094 228.829 110.013 185.642 114.094 180.198C114.094 180.198 50.4297 115.58 143.422 121.302C236.415 127.025 199.933 60.7377 199.933 60.7377L272.032 132.748C272.032 132.748 163.691 140.518 189.147 224.495C199.016 257.053 221.15 276.572 244.555 288.269C263.269 265.931 282.275 234.064 300.98 189.871C400.007 -44.0941 321.654 305.704 321.654 305.704C321.654 305.704 281.519 306.742 244.555 288.269C164.193 384.193 89.2207 304.422 66.6438 270.568Z" fill="#1CDAE6"/>
</g>
<defs>
<filter id="filter0_f_207_691" x="0.207031" y="0.737671" width="410.868" height="393.186" filterUnits="userSpaceOnUse" color-interpolation-filters="sRGB">
<feFlood flood-opacity="0" result="BackgroundImageFix"/>
<feBlend mode="normal" in="SourceGraphic" in2="BackgroundImageFix" result="shape"/>
<feGaussianBlur stdDeviation="30" result="effect1_foregroundBlur_207_691"/>
</filter>
</defs>
</svg>
